<?xml version="1.0" standalone="no"?>
<!DOCTYPE svg PUBLIC "-//W3C//DTD SVG 20010904//EN"
 "http://www.w3.org/TR/2001/REC-SVG-20010904/DTD/svg10.dtd">
<svg version="1.0" xmlns="http://www.w3.org/2000/svg"
 width="70.000000pt" height="70.000000pt" viewBox="0 0 70.000000 70.000000"
 preserveAspectRatio="xMidYMid meet">
<metadata>
Created by potrace 1.14, written by Peter Selinger 2001-2017
</metadata>
<g transform="translate(0.000000,70.000000) scale(0.100000,-0.100000)"
fill="#000000" stroke="none">
<path d="M270 691 c0 -5 -18 -11 -40 -15 -22 -3 -40 -10 -40 -15 0 -5 -11 -12
-25 -15 -14 -4 -25 -11 -25 -16 0 -6 -4 -10 -10 -10 -13 0 -50 -37 -50 -50 0
-5 -4 -10 -10 -10 -5 0 -12 -11 -16 -25 -3 -14 -10 -25 -15 -25 -5 0 -12 -18
-15 -40 -4 -22 -10 -40 -15 -40 -5 0 -9 -36 -9 -80 0 -44 4 -80 9 -80 5 0 11
-18 15 -40 3 -22 10 -40 15 -40 5 0 12 -11 15 -25 4 -14 11 -25 16 -25 6 0 10
-4 10 -10 0 -17 58 -69 84 -76 14 -3 26 -10 26 -15 0 -5 18 -12 40 -15 22 -4
40 -10 40 -15 0 -5 36 -9 80 -9 44 0 80 4 80 9 0 5 23 12 50 16 28 4 50 11 50
16 0 5 8 13 17 16 28 11 92 81 99 108 3 14 10 25 15 25 5 0 12 18 15 40 4 22
10 40 15 40 5 0 9 36 9 80 0 44 -4 80 -9 80 -5 0 -11 18 -15 40 -3 22 -10 40
-15 40 -5 0 -12 12 -15 26 -7 26 -59 84 -76 84 -6 0 -10 4 -10 10 0 5 -11 12
-25 16 -14 3 -25 10 -25 15 0 5 -18 12 -40 15 -22 4 -40 10 -40 15 0 5 -36 9
-80 9 -44 0 -80 -4 -80 -9z m-20 -206 c0 -43 4 -75 10 -75 6 0 10 32 10 75 0
43 4 75 10 75 6 0 10 -32 10 -75 0 -59 3 -75 15 -75 11 0 15 18 18 78 l3 77 2
-82 c1 -61 -2 -85 -13 -97 -12 -11 -15 -41 -15 -135 0 -90 -3 -121 -12 -121
-32 1 -36 17 -40 144 -2 92 -7 131 -15 134 -9 2 -13 27 -13 78 0 59 3 74 15
74 12 0 15 -15 15 -75z m231 -348 c-5 -5 -18 -6 -30 -2 -19 6 -21 14 -21 96 0
64 -3 89 -12 89 -9 0 -12 16 -10 55 2 30 8 55 13 55 5 0 9 7 9 15 0 8 4 15 9
15 5 0 12 12 15 26 4 14 12 32 19 39 9 10 13 -29 15 -183 1 -110 -2 -200 -7
-205z"/>
</g>
</svg>
